HIERARCHY
ROOT Hips
{
	OFFSET 0.000000 0.000000 0.000000
	CHANNELS 6 Xposition Yposition Zposition Zrotation Yrotation Xrotation 
	JOINT LHipJoint
	{
		OFFSET 0.000000 0.000000 0.000000
		CHANNELS 3 Zrotation Yrotation Xrotation
		JOINT LeftUpLeg
		{
			OFFSET 1.363060 -1.794630 0.839290
			CHANNELS 3 Zrotation Yrotation Xrotation
			JOINT LeftLeg
			{
				OFFSET 2.448110 -6.726130 0.000000
				CHANNELS 3 Zrotation Yrotation Xrotation
				JOINT LeftFoot
				{
					OFFSET 2.562200 -7.039590 0.000000
					CHANNELS 3 Zrotation Yrotation Xrotation
					JOINT LeftToeBase
					{
						OFFSET 0.157640 -0.433110 2.322550
						CHANNELS 3 Zrotation Yrotation Xrotation
						End Site
						{
							OFFSET 0.000000 0.000000 0.000000
						}
					}
				}
			}
		}
	}
	JOINT RHipJoint
	{
		OFFSET 0.000000 0.000000 0.000000
		CHANNELS 3 Zrotation Yrotation Xrotation
		JOINT RightUpLeg
		{
			OFFSET -1.305520 -1.794630 0.839290
			CHANNELS 3 Zrotation Yrotation Xrotation
			JOINT RightLeg
			{
				OFFSET -2.542530 -6.985550 0.000000
				CHANNELS 3 Zrotation Yrotation Xrotation
				JOINT RightFoot
				{
					OFFSET -2.568260 -7.056230 0.000000
					CHANNELS 3 Zrotation Yrotation Xrotation
					JOINT RightToeBase
					{
						OFFSET -0.164730 -0.452590 2.363150
						CHANNELS 3 Zrotation Yrotation Xrotation
						End Site
						{
							OFFSET 0.000000 0.000000 0.000000
						}
					}
				}
			}
		}
	}
	JOINT LowerBack
	{
		OFFSET 0.000000 0.000000 0.000000
		CHANNELS 3 Zrotation Yrotation Xrotation
		JOINT Spine
		{
			OFFSET 0.028270 2.035590 -0.193380
			CHANNELS 3 Zrotation Yrotation Xrotation
			JOINT Spine1
			{
				OFFSET 0.056720 2.048850 -0.042750
				CHANNELS 3 Zrotation Yrotation Xrotation
				JOINT Neck
				{
					OFFSET 0.000000 0.000000 0.000000
					CHANNELS 3 Zrotation Yrotation Xrotation
					JOINT Neck1
					{
						OFFSET -0.054170 1.746240 0.172020
						CHANNELS 3 Zrotation Yrotation Xrotation
						JOINT Head
						{
							OFFSET 0.104070 1.761360 -0.123970
							CHANNELS 3 Zrotation Yrotation Xrotation
							End Site
							{
								OFFSET 0.000000 0.000000 0.000000
							}
						}
					}
				}
				JOINT LeftShoulder
				{
					OFFSET 0.000000 0.000000 0.000000
					CHANNELS 3 Zrotation Yrotation Xrotation
					JOINT LeftArm
					{
						OFFSET 3.362410 1.200890 -0.311210
						CHANNELS 3 Zrotation Yrotation Xrotation
						JOINT LeftForeArm
						{
							OFFSET 4.983000 -0.000000 -0.000000
							CHANNELS 3 Zrotation Yrotation Xrotation
							JOINT LeftHand
							{
								OFFSET 3.483560 -0.000000 -0.000000
								CHANNELS 3 Zrotation Yrotation Xrotation
								JOINT LeftFingerBase
								{
									OFFSET 0.000000 0.000000 0.000000
									CHANNELS 3 Zrotation Yrotation Xrotation
									JOINT LeftHandIndex1
									{
										OFFSET 0.715260 -0.000000 -0.000000
										CHANNELS 3 Zrotation Yrotation Xrotation
										End Site
										{
											OFFSET 0.000000 0.000000 0.000000
										}
									}
								}
								JOINT LThumb
								{
									OFFSET 0.000000 0.000000 0.000000
									CHANNELS 3 Zrotation Yrotation Xrotation
									End Site
									{
										OFFSET 0.000000 0.000000 0.000000
									}
								}
							}
						}
					}
				}
				JOINT RightShoulder
				{
					OFFSET 0.000000 0.000000 0.000000
					CHANNELS 3 Zrotation Yrotation Xrotation
					JOINT RightArm
					{
						OFFSET -3.136600 1.374050 -0.404650
						CHANNELS 3 Zrotation Yrotation Xrotation
						JOINT RightForeArm
						{
							OFFSET -5.241900 -0.000000 -0.000000
							CHANNELS 3 Zrotation Yrotation Xrotation
							JOINT RightHand
							{
								OFFSET -3.444170 -0.000000 -0.000000
								CHANNELS 3 Zrotation Yrotation Xrotation
								JOINT RightFingerBase
								{
									OFFSET 0.000000 0.000000 0.000000
									CHANNELS 3 Zrotation Yrotation Xrotation
									JOINT RightHandIndex1
									{
										OFFSET -0.622530 -0.000000 -0.000000
										CHANNELS 3 Zrotation Yrotation Xrotation
										End Site
										{
											OFFSET 0.000000 0.000000 0.000000
										}
									}
								}
								JOINT RThumb
								{
									OFFSET 0.000000 0.000000 0.000000
									CHANNELS 3 Zrotation Yrotation Xrotation
									End Site
									{
										OFFSET 0.000000 0.000000 0.000000
									}
								}
							}
						}
					}
				}
			}
		}
	}
}
MOTION
Frames: 11
Frame Time: 0.008333
1.560048 17.327167 0.841975 175.202151 -74.019377 -174.217369 -12.776686 6.611395 1.300044 -1.621362 35.939505 -0.565039 -3.005574 -0.687475 -2.717775 0.451036 7.409871 5.231218 1.767700 -0.000000 -52.327400 9.084679 -3.716211 5.416259 -1.895344 -1.320652 1.665932 2.138140 1.586397 -3.389777 0.512554 0.007509 7.779466 -0.761300 -0.000000 -73.193500 0.861737 -6.716354 -11.696166 0.911013 -6.631300 -4.799518 -1.333844 -6.728617 1.187032 14.270480 -23.998582 -8.602510 -0.076613 0.018681 -0.181169 0.000000 0.000000 0.000000 20.327727 -2.601617 0.801144 -13.876769 -37.767561 -22.244542 0.278353 -18.306516 -0.004350 0.797861 -1.903833 -0.015794 -0.009149 0.407170 -0.000000 0.000000 0.000000 0.000000 0.000000 0.000000 0.000000 8.048870 -23.232719 -2.503955 28.379016 10.618275 -18.222032 -179.654948 71.383525 179.939974 -7.696152 6.860782 -0.503428 0.085408 -0.526690 -0.000000 0.000000 0.000000 0.000000 0.000000 0.000000 0.000000 
1.554759 17.326515 0.841148 175.010201 -73.552507 -173.924412 -12.793937 6.603888 1.280675 -1.767873 35.896856 -0.421965 -2.987913 -0.706316 -2.946130 0.506508 7.746517 5.388080 1.833500 0.000000 -52.404800 9.082522 -3.716658 5.474476 -2.020590 -0.987364 1.305310 2.128523 1.560302 -3.081298 0.523821 0.197166 7.604714 -0.702700 -0.000000 -73.262300 0.936569 -6.615393 -11.737718 0.900972 -6.548639 -4.795926 -1.418309 -6.647105 1.266438 14.257321 -24.053511 -8.617742 -0.089291 0.017866 -0.182964 0.000000 0.000000 0.000000 20.324422 -2.315848 0.763013 -14.276531 -36.838945 -20.581055 0.299918 -20.863682 0.000419 0.079228 -1.382862 -0.000528 0.006921 0.404439 -0.000000 0.000000 0.000000 0.000000 0.000000 0.000000 0.000000 8.035683 -23.183965 -2.469855 28.640517 10.237935 -18.381340 -179.671687 71.082973 179.940372 -7.666223 6.853126 -0.501114 0.086967 -0.527255 -0.000000 0.000000 0.000000 0.000000 0.000000 0.000000 0.000000 
1.550651 17.325407 0.839741 174.817016 -73.113967 -173.620548 -12.808460 6.593512 1.264388 -1.922351 35.835548 -0.287501 -2.971562 -0.726987 -3.186375 0.565291 8.057095 5.544667 1.890801 0.000000 -52.474401 9.082831 -3.715699 5.527730 -2.146962 -0.692995 0.940510 2.120707 1.535734 -2.790084 0.537328 0.404712 7.428931 -0.640300 -0.000000 -73.317199 1.014761 -6.507594 -11.773819 0.886490 -6.459945 -4.794498 -1.519871 -6.558539 1.335613 14.236164 -24.105873 -8.622599 -0.104411 0.016622 -0.181602 0.000000 0.000000 0.000000 20.244475 -2.110449 0.725492 -14.579579 -35.678973 -18.947074 0.327670 -23.731717 0.004257 -0.476535 -1.033746 0.006827 0.020712 0.406156 -0.000000 0.000000 0.000000 0.000000 0.000000 0.000000 0.000000 8.000290 -23.125277 -2.421411 28.939624 9.804881 -18.540621 -179.694059 70.752579 179.940925 -7.624694 6.848472 -0.498293 0.088934 -0.527920 -0.000000 0.000000 0.000000 0.000000 0.000000 0.000000 0.000000 
1.547710 17.323940 0.838037 174.622226 -72.710086 -173.302771 -12.819066 6.579289 1.252688 -2.092709 35.739030 -0.177401 -2.954892 -0.748074 -3.416746 0.625443 8.360981 5.682612 1.945300 0.000000 -52.531800 9.085481 -3.712174 5.575216 -2.273039 -0.431367 0.573579 2.113942 1.513006 -2.518981 0.551328 0.613947 7.256245 -0.578600 -0.000000 -73.368300 1.094173 -6.397774 -11.803301 0.869513 -6.369972 -4.793707 -1.631924 -6.468047 1.397745 14.210301 -24.160604 -8.622343 -0.120830 0.015145 -0.178627 0.000000 0.000000 0.000000 20.086559 -1.925702 0.682406 -14.785650 -34.425470 -17.499699 0.363036 -26.730203 0.006802 -0.827480 -0.865106 0.010265 0.031543 0.411900 0.000000 0.000000 0.000000 0.000000 0.000000 0.000000 0.000000 7.952334 -23.066738 -2.364743 29.261851 9.354917 -18.697877 -179.720542 70.419147 179.941585 -7.575254 6.850651 -0.495372 0.091117 -0.528655 -0.000000 0.000000 0.000000 0.000000 0.000000 0.000000 0.000000 
1.545932 17.322133 0.836397 174.428794 -72.344929 -172.979556 -12.827684 6.563394 1.240747 -2.268771 35.646981 -0.087405 -2.942523 -0.770063 -3.650529 0.685584 8.622216 5.813257 1.987500 -0.000001 -52.573701 9.090277 -3.705756 5.616428 -2.397410 -0.207776 0.204079 2.107748 1.491575 -2.253822 0.565778 0.825446 7.081790 -0.517500 -0.000001 -73.406800 1.177103 -6.291253 -11.822599 0.851537 -6.283641 -4.793612 -1.751300 -6.380436 1.450463 14.172938 -24.207155 -8.612335 -0.139005 0.013312 -0.172797 0.000000 0.000000 0.000000 19.867356 -1.781192 0.634829 -14.945671 -33.048495 -16.305006 0.401688 -29.845150 0.008102 -0.994355 -0.821023 0.011889 0.039755 0.420385 0.000000 0.000000 0.000000 0.000000 0.000000 0.000000 0.000000 7.883595 -23.002329 -2.302940 29.610361 8.901450 -18.845665 -179.749899 70.095072 179.942314 -7.519840 6.860928 -0.492648 0.093374 -0.529495 -0.000000 0.000000 0.000000 0.000000 0.000000 0.000000 0.000000 
1.545053 17.320117 0.835035 174.240544 -72.017551 -172.649376 -12.833874 6.545184 1.229510 -2.457461 35.548381 -0.030282 -2.933008 -0.791948 -3.870495 0.744205 8.861634 5.921810 2.023300 0.000000 -52.597100 9.096769 -3.695776 5.651796 -2.518999 -0.012883 -0.170936 2.101611 1.471392 -1.991796 0.579520 1.028852 6.907566 -0.459700 0.000000 -73.443200 1.263751 -6.191138 -11.831951 0.834705 -6.204283 -4.792415 -1.872142 -6.299480 1.500053 14.127803 -24.251010 -8.600228 -0.157571 0.011386 -0.166299 0.000000 0.000000 0.000000 19.593528 -1.610726 0.578345 -15.089249 -31.662818 -15.395279 0.442157 -32.960358 0.008093 -0.982004 -0.866785 0.012298 0.045402 0.430725 0.000000 0.000000 0.000000 0.000000 0.000000 0.000000 0.000000 7.803152 -22.940698 -2.241967 29.971472 8.480867 -18.982720 -179.780408 69.801332 179.943053 -7.463190 6.881115 -0.490525 0.095563 -0.530422 -0.000000 0.000000 0.000000 0.000000 0.000000 0.000000 0.000000 
1.545144 17.317931 0.834193 174.059811 -71.725449 -172.317283 -12.838474 6.525145 1.216868 -2.656565 35.457151 -0.007756 -2.927473 -0.813578 -4.077305 0.800417 9.074737 6.008828 2.051600 -0.000001 -52.599900 9.104538 -3.681837 5.681949 -2.636723 0.158800 -0.553847 2.095084 1.451988 -1.724480 0.592041 1.220126 6.732213 -0.406300 0.000000 -73.477800 1.355940 -6.099845 -11.830531 0.820259 -6.134315 -4.789681 -1.991837 -6.227692 1.547800 14.073224 -24.288288 -8.586444 -0.176608 0.009377 -0.159291 0.000000 0.000000 0.000000 19.278431 -1.408597 0.514032 -15.257305 -30.266038 -14.760193 0.479861 -36.070838 0.007002 -0.832039 -0.946406 0.011399 0.049073 0.441804 0.000000 0.000000 0.000000 0.000000 0.000000 0.000000 0.000000 7.710851 -22.879798 -2.184630 30.342101 8.109114 -19.105353 -179.810998 69.548523 179.943766 -7.408856 6.911124 -0.489102 0.097628 -0.531429 -0.000000 0.000000 0.000000 0.000000 0.000000 0.000000 0.000000 
1.545992 17.315697 0.833972 173.891873 -71.464512 -171.986161 -12.841998 6.503445 1.202255 -2.866631 35.376608 -0.022613 -2.925831 -0.834788 -4.268627 0.853718 9.267609 6.072669 2.074000 -0.000000 -52.581100 9.113008 -3.663986 5.708131 -2.749162 0.315403 -0.947840 2.087852 1.433026 -1.445606 0.602704 1.394375 6.554632 -0.358400 0.000001 -73.513301 1.454718 -6.018169 -11.819261 0.808961 -6.074652 -4.785131 -2.108914 -6.166107 1.595513 14.009694 -24.317400 -8.572413 -0.196213 0.007305 -0.152184 0.000000 0.000000 0.000000 18.932361 -1.168475 0.443568 -15.477857 -28.859616 -14.372325 0.510494 -39.176270 0.005144 -0.591055 -1.015707 0.008893 0.051376 0.452701 0.000000 0.000000 0.000000 0.000000 0.000000 0.000000 0.000000 7.608797 -22.818640 -2.132769 30.717629 7.797520 -19.211543 -179.840936 69.341394 179.944419 -7.360918 6.950266 -0.488682 0.099591 -0.532502 -0.000000 0.000000 0.000000 0.000000 0.000000 0.000000 0.000000 
1.547653 17.313491 0.834451 173.738385 -71.229750 -171.658657 -12.844513 6.479444 1.184588 -3.087485 35.309391 -0.081442 -2.927916 -0.854808 -4.431182 0.903165 9.444647 6.106220 2.091600 -0.000001 -52.539500 9.121796 -3.642154 5.731427 -2.855247 0.465301 -1.355877 2.079564 1.414004 -1.150217 0.610955 1.547291 6.374997 -0.316999 -0.000000 -73.549800 1.559652 -5.945677 -11.798334 0.800955 -6.024879 -4.778395 -2.222583 -6.114442 1.644414 13.939436 -24.337823 -8.559824 -0.216624 0.005186 -0.145483 0.000000 0.000000 0.000000 18.561817 -0.886953 0.369546 -15.761510 -27.446536 -14.194807 0.530551 -42.276449 0.002892 -0.308716 -1.048449 0.005484 0.052941 0.462756 0.000000 0.000000 0.000000 0.000000 0.000000 0.000000 0.000000 7.501844 -22.756132 -2.087268 31.092988 7.550855 -19.301545 -179.869825 69.183761 179.944987 -7.323512 6.997399 -0.489460 0.101512 -0.533589 -0.000000 0.000000 0.000000 0.000000 0.000000 0.000000 0.000000 
1.550110 17.311395 0.835584 173.600344 -71.011325 -171.336942 -12.840674 6.445255 1.161080 -3.322026 35.250456 -0.314520 -2.934136 -0.858864 -4.285707 0.924213 9.612019 5.949453 2.105900 0.000000 -52.475200 9.129840 -3.615775 5.753358 -2.954720 0.617081 -1.779342 2.070064 1.395164 -0.835207 0.616530 1.675231 6.193448 -0.282800 0.000001 -73.586601 1.668414 -5.879534 -11.767022 0.795435 -5.982046 -4.768920 -2.333178 -6.069848 1.694936 13.865695 -24.349549 -8.549685 -0.238217 0.003008 -0.139494 0.000000 0.000000 0.000000 18.172225 -0.569033 0.295372 -16.107828 -26.023504 -14.184830 0.537393 -45.374284 0.000647 -0.033641 -1.031430 0.001874 0.054346 0.471471 0.000000 0.000000 0.000000 0.000000 0.000000 0.000000 0.000000 7.395255 -22.690167 -2.047745 31.463591 7.365939 -19.376409 -179.897658 69.072691 179.945457 -7.299738 7.050472 -0.491540 0.103491 -0.534635 -0.000000 0.000000 0.000000 0.000000 0.000000 0.000000 0.000000 
1.553304 17.309475 0.837294 173.482042 -70.811695 -171.021479 -12.836566 6.409055 1.134374 -3.566412 35.200271 -0.569362 -2.942588 -0.863804 -4.153462 0.945539 9.776101 5.788783 2.118299 0.000000 -52.388900 9.137865 -3.586356 5.774627 -3.046236 0.777412 -2.219709 2.058936 1.375449 -0.500638 0.618465 1.773528 6.009756 -0.256500 -0.000000 -73.621400 1.778328 -5.819366 -11.728169 0.791789 -5.945527 -4.757130 -2.441212 -6.031769 1.747585 13.792408 -24.353279 -8.543659 -0.261112 0.000790 -0.134704 0.000000 0.000000 0.000000 17.766333 -0.219953 0.224713 -16.505064 -24.597761 -14.297926 0.529928 -48.460282 -0.001222 0.192343 -0.967419 -0.001036 0.056054 0.478580 0.000000 0.000000 0.000000 0.000000 0.000000 0.000000 0.000000 7.294513 -22.620449 -2.013751 31.825523 7.233710 -19.438851 -179.924497 69.002725 179.945823 -7.292398 7.108141 -0.495019 0.105627 -0.535591 -0.000000 0.000000 0.000000 0.000000 0.000000 0.000000 0.000000 
